HIERARCHY
ROOT Hips
{
	OFFSET 0.00000 0.00000 0.00000
	CHANNELS 6 Xposition Yposition Zposition Yrotation Zrotation Xrotation 
	JOINT Lumbar
	{
		OFFSET 0 0 0
		CHANNELS 3 Zrotation Xrotation Yrotation
		JOINT Neck
		{
			OFFSET 0.00 0.2701 0.00
			CHANNELS 3 Zrotation Xrotation Yrotation
			End Site
			{
				OFFSET 0.00 0.1379 0.00
			}
		}
		JOINT RightShoulder
		{
			OFFSET 0.0119 0.2289 0.1181
			CHANNELS 3 Zrotation Xrotation Yrotation
			JOINT RightElbow
			{
				OFFSET 0.00 -0.1475 0.00
				CHANNELS 2 Zrotation Yrotation
				JOINT RightWrist
				{
					OFFSET 0.00 -0.1605 0.00
					CHANNELS 2 Zrotation Xrotation
					End Site
					{
						OFFSET 0.0040 -0.1068 0.0006
					}
				}
			}
		}
		JOINT LeftShoulder
		{
			OFFSET 0.0119 0.2289 -0.1181
			CHANNELS 3 Zrotation Xrotation Yrotation
			JOINT LeftElbow
			{
				OFFSET 0.00 -0.1475 0.00
				CHANNELS 2 Zrotation Yrotation
				JOINT LeftWrist
				{
					OFFSET 0.00 -0.1605 0.00
					CHANNELS 2 Zrotation Xrotation
					End Site
					{
						OFFSET 0.0040 -0.1068 -0.0006
					}
				}
			}
		}
	}
	JOINT RightHip
	{
		OFFSET 0.0316 -0.0424 0.0458
		CHANNELS 3 Zrotation Xrotation Yrotation
		JOINT RightKnee
		{
			OFFSET 0.00 -0.2438 0.00
			CHANNELS 1 Zrotation
			JOINT RightAnkle
			{
				OFFSET 0.00 -0.2449 0.00
				CHANNELS 3 Zrotation Xrotation Yrotation
				End Site
				{
					OFFSET 0.1237 -0.0542 0.0051
				}
			}
		}
	}
	JOINT LeftHip
	{
		OFFSET 0.0316 -0.0424 -0.0458
		CHANNELS 3 Zrotation Xrotation Yrotation
		JOINT LeftKnee
		{
			OFFSET 0.00 -0.2438 0.00
			CHANNELS 1 Zrotation
			JOINT LeftAnkle
			{
				OFFSET 0.00 -0.2449 0.00
				CHANNELS 3 Zrotation Xrotation Yrotation
				End Site
				{
					OFFSET 0.1237 -0.0542 -0.0051
				}
			}
		}
	}
}
MOTION
Frames: 13
Frame Time: 0.02
0.00179 0.00203 -0.00645 -151.50903 -31.36306 -1.88029 36.90939 3.70507 1.33811 21.84835 -5.14993 -1.14858 84.42367 -12.88465 48.60134 28.14253 96.90088 -16.43106 -9.24446 88.63934 2.7308 -58.60772 28.82705 -104.45742 -13.91549 8.44506 35.91517 0.01043 -6.21613 -19.19527 -6.46607 -2.24934 -3.32826 53.73074 7.85562 -2.03747 -39.80396 -6.98161 2.08289 3.25547
0.00039 0.0019 -0.00655 -151.48292 -31.53999 -1.89565 37.47638 3.72387 1.26448 21.23284 -4.97326 -1.15113 84.08992 -13.82755 48.41671 29.34764 96.75565 -16.34231 -9.14288 88.15953 3.97718 -57.65188 30.15878 -102.98062 -13.47422 8.54537 35.98349 0.00957 -6.73773 -19.20453 -6.45152 -2.19331 -3.29994 52.89073 7.62465 -1.58154 -39.10109 -6.93259 2.09484 3.25959
-0.00101 0.00176 -0.00665 -151.45661 -31.71682 -1.9108 38.04229 3.74237 1.19059 20.61841 -4.79643 -1.15369 83.75505 -14.7697 48.23053 30.55431 96.6121 -16.25459 -9.04142 87.67808 5.2228 -56.6963 31.49218 -101.50647 -13.03328 8.64394 36.05187 0.00856 -7.2579 -19.21376 -6.43701 -2.13743 -3.2717 52.05272 7.39427 -1.12643 -38.39872 -6.88372 2.10671 3.26367
-0.0024 0.00162 -0.00675 -151.43052 -31.89327 -1.92609 38.60764 3.76107 1.1171 20.00469 -4.62018 -1.15624 83.42205 -15.71 48.04613 31.75641 96.46761 -16.16625 -8.94012 87.19939 6.46578 -55.74304 32.82061 -100.03386 -12.59315 8.74367 36.12002 0.00769 -7.77792 -19.223 -6.4225 -2.08157 -3.24346 51.21518 7.16398 -0.67186 -37.69771 -6.83485 2.11863 3.26778
-0.00379 0.00149 -0.00685 -151.40478 -32.06967 -1.94162 39.1738 3.78017 1.04406 19.39015 -4.44436 -1.15879 83.09076 -16.65039 47.86407 32.95542 96.32071 -16.07655 -8.83877 86.7231 7.70854 -54.79036 34.14557 -98.55947 -12.15323 8.84577 36.18802 0.00698 -8.29931 -19.23227 -6.40797 -2.02555 -3.21515 50.37592 6.93317 -0.21655 -36.99692 -6.78585 2.13063 3.27192
-0.00519 0.00135 -0.00695 -151.37728 -32.2474 -1.95595 39.73915 3.79742 0.9684 18.77595 -4.26542 -1.16134 82.74829 -17.59624 47.66927 34.17831 96.18407 -15.99295 -8.73708 86.23062 8.96017 -53.82865 35.49676 -97.08602 -11.71026 8.93702 36.25722 0.00534 -8.81692 -19.24139 -6.39348 -1.96997 -3.18707 49.54064 6.70373 0.23817 -36.29137 -6.73725 2.14219 3.27586
-0.00658 0.00121 -0.00706 -151.35328 -32.42222 -1.97273 40.30552 3.81834 0.89808 18.16192 -4.09292 -1.16389 82.42921 -18.52968 47.5003 35.35068 96.02762 -15.89735 -8.63622 85.77232 10.19211 -52.88665 36.79281 -95.61194 -11.27352 9.04966 36.32389 0.00565 -9.34148 -19.25082 -6.37891 -1.91358 -3.15855 48.69814 6.47172 0.6932 -35.59589 -6.68787 2.15469 3.28023
-0.00798 0.00108 -0.00716 -151.32617 -32.59979 -1.98718 40.87092 3.83592 0.82285 17.5474 -3.91454 -1.16644 82.0876 -19.47526 47.30754 36.57171 95.88823 -15.81245 -8.53453 85.28055 11.44304 -51.92558 38.14127 -94.13911 -10.83174 9.14318 36.39297 0.00403 -9.85977 -19.25993 -6.36444 -1.85791 -3.13042 47.86254 6.24217 1.14865 -34.89162 -6.63925 2.16623 3.28417
-0.00937 0.00095 -0.00724 -151.2947 -32.7806 -1.99905 41.43561 3.84923 0.74145 16.93323 -3.72856 -1.169 81.72177 -20.43371 47.0851 37.84543 95.77466 -15.74219 -8.43198 84.75483 12.71498 -50.94385 39.5492 -92.66418 -10.38065 9.21074 36.46477 0.00054 -10.37012 -19.26882 -6.35001 -1.80321 -3.10282 47.03395 6.01519 1.60212 -34.17405 -6.59137 2.17695 3.28774
-0.01077 0.00079 -0.0074 -151.28664 -32.94245 -2.02657 42.00586 3.88655 0.69502 16.31983 -3.58506 -1.17153 81.50522 -21.31224 47.03159 38.79572 95.52748 -15.59239 -8.33485 84.44533 13.85953 -50.08889 40.60129 -91.19035 -9.97361 9.41986 36.52024 0.00928 -10.92535 -19.27947 -6.3351 -1.74317 -3.07233 46.16069 5.77211 2.05948 -33.5253 -6.53869 2.19345 3.29388
-0.01216 0.00069 -0.0074 -151.23032 -33.14441 -2.02056 42.5633 3.8736 0.57521 15.70316 -3.35282 -1.17413 80.96763 -22.36281 46.62308 40.44068 95.55248 -15.60734 -8.226 83.66669 15.27654 -48.96181 42.41213 -89.72155 -9.47987 9.33542 36.61055 -0.00869 -11.38632 -19.2861 -6.32135 -1.69426 -3.04784 45.38458 5.56387 2.51332 -32.73649 -6.49645 2.19709 3.29431
-0.01355 0.00079 -0.00695 -151.03129 -33.45673 -1.92612 43.09438 3.71832 0.24879 15.09083 -2.86723 -1.17694 79.59002 -23.86249 45.21815 43.90852 96.4138 -16.1046 -8.08752 81.69127 17.41724 -47.11586 46.25974 -88.20502 -8.69335 8.39469 36.7947 -0.09301 -11.58161 -19.28412 -6.30953 -1.67755 -3.04068 44.85367 5.44447 2.91715 -31.51666 -6.48054 2.17075 3.28146
-0.01493 0.00095 -0.00633 -150.78597 -33.8092 -1.79756 43.61087 3.51358 -0.1502 14.47297 -2.29446 -1.17983 77.88286 -25.5386 43.46064 48.08668 97.53321 -16.76189 -7.93714 79.22692 19.83419 -44.99046 50.8755 -86.70477 -7.8294 7.16834 37.01422 -0.2052 -11.68279 -19.27775 -6.29908 -1.67176 -3.0394 44.42436 5.3611 3.32341 -30.16493 -6.47547 2.13071 3.26254
